<svg width="1920" height="1080" viewBox="0 0 1920 1080" fill="none" xmlns="http://www.w3.org/2000/svg">
<rect width="1920" height="1080" fill="white"/>
<path d="M517.437 540.912V526.636C525.628 526.636 531.31 525.003 534.482 521.736C537.655 518.469 539.241 513.189 539.241 505.898V490.202C539.241 481.442 540.448 474.435 542.863 469.179C545.325 463.876 548.734 459.875 553.09 457.176C557.494 454.477 562.702 452.678 568.715 451.778C574.728 450.879 581.31 450.429 588.46 450.429V473.014C582.872 473.014 578.611 473.748 575.675 475.216C572.787 476.636 570.822 478.862 569.781 481.892C568.739 484.875 568.218 488.663 568.218 493.256V513.994C568.218 517.593 567.555 521.026 566.229 524.293C564.904 527.512 562.442 530.377 558.843 532.886C555.245 535.348 550.107 537.313 543.431 538.781C536.755 540.202 528.09 540.912 517.437 540.912ZM588.46 630.188C581.31 630.188 574.728 629.738 568.715 628.838C562.702 627.938 557.494 626.139 553.09 623.44C548.734 620.741 545.325 616.764 542.863 611.509C540.448 606.205 539.241 599.174 539.241 590.415V574.648C539.241 567.356 537.655 562.077 534.482 558.81C531.31 555.543 525.628 553.909 517.437 553.909V539.634C528.09 539.634 536.755 540.367 543.431 541.835C550.107 543.256 555.245 545.221 558.843 547.73C562.442 550.192 564.904 553.057 566.229 556.324C567.555 559.544 568.218 562.976 568.218 566.622V587.361C568.218 591.906 568.739 595.694 569.781 598.724C570.822 601.707 572.787 603.933 575.675 605.401C578.611 606.821 582.872 607.531 588.46 607.531V630.188ZM517.437 553.909V526.636H542.934V553.909H517.437ZM703.587 613H652.025V467.545H704.013C718.644 467.545 731.239 470.457 741.798 476.281C752.356 482.058 760.477 490.367 766.158 501.21C771.888 512.053 774.752 525.027 774.752 540.131C774.752 555.282 771.888 568.303 766.158 579.193C760.477 590.083 752.309 598.44 741.656 604.264C731.049 610.088 718.36 613 703.587 613ZM682.778 586.651H702.309C711.4 586.651 719.047 585.041 725.249 581.821C731.499 578.554 736.187 573.511 739.312 566.693C742.484 559.828 744.07 550.973 744.07 540.131C744.07 529.383 742.484 520.599 739.312 513.781C736.187 506.963 731.523 501.944 725.32 498.724C719.118 495.505 711.471 493.895 702.38 493.895H682.778V586.651ZM876.439 509.378C875.871 503.649 873.432 499.198 869.124 496.026C864.815 492.853 858.967 491.267 851.581 491.267C846.562 491.267 842.324 491.977 838.868 493.398C835.411 494.771 832.76 496.688 830.913 499.151C829.114 501.613 828.214 504.406 828.214 507.531C828.12 510.135 828.664 512.408 829.848 514.349C831.079 516.291 832.76 517.972 834.891 519.392C837.021 520.765 839.483 521.973 842.277 523.014C845.071 524.009 848.054 524.861 851.226 525.571L864.294 528.696C870.639 530.116 876.463 532.01 881.766 534.378C887.069 536.745 891.661 539.657 895.544 543.114C899.427 546.57 902.433 550.642 904.564 555.33C906.742 560.017 907.855 565.391 907.902 571.452C907.855 580.353 905.582 588.071 901.084 594.605C896.633 601.092 890.194 606.134 881.766 609.733C873.385 613.284 863.276 615.06 851.439 615.06C839.696 615.06 829.469 613.26 820.757 609.662C812.092 606.063 805.321 600.737 800.445 593.682C795.615 586.58 793.082 577.796 792.845 567.332H822.604C822.935 572.209 824.332 576.281 826.794 579.548C829.304 582.768 832.642 585.206 836.808 586.864C841.022 588.473 845.781 589.278 851.084 589.278C856.292 589.278 860.814 588.521 864.649 587.006C868.532 585.491 871.538 583.384 873.669 580.685C875.8 577.986 876.865 574.884 876.865 571.381C876.865 568.114 875.894 565.367 873.953 563.142C872.059 560.917 869.266 559.023 865.572 557.46C861.927 555.898 857.452 554.477 852.149 553.199L836.311 549.222C824.048 546.239 814.365 541.575 807.263 535.23C800.161 528.885 796.633 520.339 796.68 509.591C796.633 500.784 798.977 493.09 803.712 486.509C808.494 479.927 815.052 474.79 823.385 471.097C831.718 467.403 841.188 465.557 851.794 465.557C862.589 465.557 872.012 467.403 880.061 471.097C888.158 474.79 894.455 479.927 898.953 486.509C903.451 493.09 905.771 500.713 905.913 509.378H876.439ZM950.338 613H917.384L967.597 467.545H1007.23L1057.37 613H1024.41L987.98 500.784H986.844L950.338 613ZM948.278 555.827H1026.12V579.832H948.278V555.827ZM1077.11 613.923C1074.77 613.923 1072.76 613.095 1071.08 611.438C1069.42 609.757 1068.59 607.744 1068.59 605.401C1068.59 603.08 1069.42 601.092 1071.08 599.435C1072.76 597.777 1074.77 596.949 1077.11 596.949C1079.39 596.949 1081.38 597.777 1083.08 599.435C1084.78 601.092 1085.64 603.08 1085.64 605.401C1085.64 606.963 1085.23 608.395 1084.43 609.697C1083.65 610.976 1082.62 612.006 1081.34 612.787C1080.06 613.545 1078.65 613.923 1077.11 613.923ZM1113.18 540.273V613H1098.06V540.273H1113.18ZM1140.86 614.03C1137.38 614.03 1134.28 613.426 1131.55 612.219C1128.83 610.988 1126.68 609.177 1125.09 606.786C1123.53 604.371 1122.75 601.364 1122.75 597.766C1122.75 594.735 1123.3 592.19 1124.41 590.131C1125.53 588.071 1127.04 586.414 1128.96 585.159C1130.88 583.904 1133.06 582.957 1135.49 582.318C1137.96 581.679 1140.54 581.229 1143.24 580.969C1146.41 580.637 1148.96 580.33 1150.91 580.045C1152.85 579.738 1154.26 579.288 1155.13 578.696C1156.01 578.104 1156.45 577.228 1156.45 576.068V575.855C1156.45 573.606 1155.74 571.866 1154.32 570.635C1152.92 569.404 1150.93 568.788 1148.35 568.788C1145.63 568.788 1143.46 569.392 1141.85 570.599C1140.24 571.783 1139.18 573.275 1138.65 575.074L1124.66 573.938C1125.37 570.623 1126.77 567.759 1128.85 565.344C1130.94 562.905 1133.62 561.035 1136.91 559.733C1140.23 558.407 1144.06 557.744 1148.42 557.744C1151.45 557.744 1154.35 558.099 1157.12 558.81C1159.91 559.52 1162.39 560.621 1164.54 562.112C1166.72 563.604 1168.44 565.521 1169.69 567.865C1170.95 570.185 1171.57 572.967 1171.57 576.21V613H1157.23V605.436H1156.8C1155.93 607.141 1154.75 608.644 1153.29 609.946C1151.82 611.224 1150.05 612.231 1147.99 612.964C1145.93 613.675 1143.56 614.03 1140.86 614.03ZM1145.19 603.589C1147.41 603.589 1149.38 603.152 1151.08 602.276C1152.79 601.376 1154.13 600.169 1155.1 598.653C1156.07 597.138 1156.55 595.422 1156.55 593.504V587.716C1156.08 588.024 1155.43 588.308 1154.6 588.568C1153.79 588.805 1152.88 589.03 1151.87 589.243C1150.85 589.432 1149.83 589.61 1148.81 589.776C1147.79 589.918 1146.87 590.048 1146.04 590.166C1144.27 590.427 1142.71 590.841 1141.39 591.409C1140.06 591.977 1139.03 592.747 1138.3 593.717C1137.57 594.664 1137.2 595.848 1137.2 597.268C1137.2 599.328 1137.94 600.902 1139.44 601.991C1140.95 603.057 1142.87 603.589 1145.19 603.589ZM1198.44 581.466V613H1183.31V558.455H1197.73V568.078H1198.37C1199.57 564.906 1201.6 562.396 1204.44 560.55C1207.28 558.679 1210.73 557.744 1214.77 557.744C1218.56 557.744 1221.86 558.573 1224.68 560.23C1227.5 561.887 1229.69 564.255 1231.25 567.332C1232.81 570.386 1233.59 574.032 1233.59 578.27V613H1218.47V580.969C1218.49 577.631 1217.64 575.027 1215.91 573.156C1214.18 571.262 1211.8 570.315 1208.77 570.315C1206.74 570.315 1204.94 570.753 1203.37 571.629C1201.84 572.505 1200.63 573.784 1199.75 575.464C1198.9 577.122 1198.46 579.122 1198.44 581.466ZM1270.09 634.591C1265.19 634.591 1260.99 633.916 1257.48 632.567C1254 631.241 1251.23 629.43 1249.18 627.134C1247.12 624.837 1245.78 622.257 1245.16 619.392L1259.15 617.51C1259.58 618.599 1260.25 619.617 1261.18 620.564C1262.1 621.511 1263.32 622.268 1264.84 622.837C1266.37 623.429 1268.24 623.724 1270.45 623.724C1273.74 623.724 1276.45 622.92 1278.58 621.31C1280.73 619.723 1281.81 617.06 1281.81 613.32V603.341H1281.17C1280.51 604.856 1279.51 606.288 1278.19 607.638C1276.86 608.987 1275.16 610.088 1273.07 610.94C1270.99 611.793 1268.51 612.219 1265.62 612.219C1261.52 612.219 1257.79 611.272 1254.43 609.378C1251.09 607.46 1248.43 604.536 1246.44 600.607C1244.48 596.653 1243.49 591.658 1243.49 585.621C1243.49 579.442 1244.5 574.281 1246.51 570.138C1248.52 565.995 1251.2 562.893 1254.54 560.834C1257.9 558.774 1261.58 557.744 1265.58 557.744C1268.64 557.744 1271.19 558.265 1273.25 559.307C1275.31 560.325 1276.97 561.603 1278.22 563.142C1279.5 564.657 1280.48 566.149 1281.17 567.616H1281.74V558.455H1296.76V613.533C1296.76 618.173 1295.62 622.055 1293.35 625.18C1291.08 628.305 1287.93 630.649 1283.91 632.212C1279.9 633.798 1275.3 634.591 1270.09 634.591ZM1270.41 600.855C1272.85 600.855 1274.91 600.251 1276.59 599.044C1278.29 597.813 1279.6 596.061 1280.5 593.788C1281.42 591.492 1281.88 588.746 1281.88 585.55C1281.88 582.354 1281.43 579.584 1280.53 577.24C1279.63 574.873 1278.33 573.038 1276.63 571.736C1274.92 570.434 1272.85 569.783 1270.41 569.783C1267.93 569.783 1265.83 570.457 1264.13 571.807C1262.42 573.133 1261.13 574.979 1260.25 577.347C1259.38 579.714 1258.94 582.448 1258.94 585.55C1258.94 588.698 1259.38 591.421 1260.25 593.717C1261.15 595.99 1262.44 597.754 1264.13 599.009C1265.83 600.24 1267.93 600.855 1270.41 600.855ZM1401.55 554.051V568.327C1393.4 568.327 1387.72 569.96 1384.5 573.227C1381.33 576.494 1379.74 581.774 1379.74 589.065V604.832C1379.74 613.592 1378.51 620.599 1376.05 625.855C1373.63 631.158 1370.22 635.159 1365.82 637.858C1361.46 640.557 1356.28 642.356 1350.27 643.256C1344.3 644.155 1337.72 644.605 1330.52 644.605V621.949C1336.11 621.949 1340.35 621.215 1343.24 619.747C1346.17 618.327 1348.16 616.101 1349.2 613.071C1350.24 610.088 1350.76 606.324 1350.76 601.778V581.04C1350.76 577.394 1351.43 573.961 1352.75 570.741C1354.08 567.474 1356.54 564.61 1360.14 562.148C1363.74 559.638 1368.88 557.673 1375.55 556.253C1382.23 554.785 1390.89 554.051 1401.55 554.051ZM1330.52 464.847C1337.72 464.847 1344.3 465.296 1350.27 466.196C1356.28 467.096 1361.46 468.895 1365.82 471.594C1370.22 474.293 1373.63 478.294 1376.05 483.597C1378.51 488.852 1379.74 495.86 1379.74 504.619V520.315C1379.74 527.607 1381.33 532.886 1384.5 536.153C1387.72 539.42 1393.4 541.054 1401.55 541.054V555.33C1390.89 555.33 1382.23 554.619 1375.55 553.199C1368.88 551.731 1363.74 549.766 1360.14 547.304C1356.54 544.795 1354.08 541.93 1352.75 538.71C1351.43 535.443 1350.76 532.01 1350.76 528.412V507.673C1350.76 503.08 1350.24 499.293 1349.2 496.31C1348.16 493.279 1346.17 491.054 1343.24 489.634C1340.35 488.166 1336.11 487.432 1330.52 487.432V464.847ZM1401.55 541.054V568.327H1376.05V541.054H1401.55Z" fill="black"/>
</svg>
