<svg width="1920" height="1080" viewBox="0 0 1920 1080" fill="none" xmlns="http://www.w3.org/2000/svg">
<rect width="1920" height="1080" fill="white"/>
<path d="M506.365 540.912V526.636C514.556 526.636 520.238 525.003 523.41 521.736C526.582 518.469 528.169 513.189 528.169 505.898V490.202C528.169 481.442 529.376 474.435 531.791 469.179C534.253 463.876 537.662 459.875 542.018 457.176C546.421 454.477 551.63 452.678 557.643 451.778C563.656 450.879 570.238 450.429 577.387 450.429V473.014C571.8 473.014 567.539 473.748 564.603 475.216C561.715 476.636 559.75 478.862 558.708 481.892C557.667 484.875 557.146 488.663 557.146 493.256V513.994C557.146 517.593 556.483 521.026 555.157 524.293C553.831 527.512 551.369 530.377 547.771 532.886C544.172 535.348 539.035 537.313 532.359 538.781C525.683 540.202 517.018 540.912 506.365 540.912ZM577.387 630.188C570.238 630.188 563.656 629.738 557.643 628.838C551.63 627.938 546.421 626.139 542.018 623.44C537.662 620.741 534.253 616.764 531.791 611.509C529.376 606.205 528.169 599.174 528.169 590.415V574.648C528.169 567.356 526.582 562.077 523.41 558.81C520.238 555.543 514.556 553.909 506.365 553.909V539.634C517.018 539.634 525.683 540.367 532.359 541.835C539.035 543.256 544.172 545.221 547.771 547.73C551.369 550.192 553.831 553.057 555.157 556.324C556.483 559.544 557.146 562.976 557.146 566.622V587.361C557.146 591.906 557.667 595.694 558.708 598.724C559.75 601.707 561.715 603.933 564.603 605.401C567.539 606.821 571.8 607.531 577.387 607.531V630.188ZM506.365 553.909V526.636H531.862V553.909H506.365ZM692.515 613H640.953V467.545H692.941C707.572 467.545 720.167 470.457 730.725 476.281C741.284 482.058 749.404 490.367 755.086 501.21C760.815 512.053 763.68 525.027 763.68 540.131C763.68 555.282 760.815 568.303 755.086 579.193C749.404 590.083 741.237 598.44 730.583 604.264C719.977 610.088 707.288 613 692.515 613ZM671.705 586.651H691.237C700.328 586.651 707.974 585.041 714.177 581.821C720.427 578.554 725.115 573.511 728.24 566.693C731.412 559.828 732.998 550.973 732.998 540.131C732.998 529.383 731.412 520.599 728.24 513.781C725.115 506.963 720.451 501.944 714.248 498.724C708.045 495.505 700.399 493.895 691.308 493.895H671.705V586.651ZM865.367 509.378C864.798 503.649 862.36 499.198 858.051 496.026C853.743 492.853 847.895 491.267 840.509 491.267C835.49 491.267 831.252 491.977 827.796 493.398C824.339 494.771 821.688 496.688 819.841 499.151C818.042 501.613 817.142 504.406 817.142 507.531C817.048 510.135 817.592 512.408 818.776 514.349C820.007 516.291 821.688 517.972 823.818 519.392C825.949 520.765 828.411 521.973 831.205 523.014C833.998 524.009 836.981 524.861 840.154 525.571L853.222 528.696C859.566 530.116 865.39 532.01 870.693 534.378C875.996 536.745 880.589 539.657 884.472 543.114C888.354 546.57 891.361 550.642 893.492 555.33C895.67 560.017 896.782 565.391 896.83 571.452C896.782 580.353 894.51 588.071 890.012 594.605C885.561 601.092 879.121 606.134 870.693 609.733C862.313 613.284 852.204 615.06 840.367 615.06C828.624 615.06 818.397 613.26 809.685 609.662C801.02 606.063 794.249 600.737 789.372 593.682C784.543 586.58 782.01 577.796 781.773 567.332H811.531C811.863 572.209 813.26 576.281 815.722 579.548C818.231 582.768 821.569 585.206 825.736 586.864C829.95 588.473 834.709 589.278 840.012 589.278C845.22 589.278 849.742 588.521 853.577 587.006C857.459 585.491 860.466 583.384 862.597 580.685C864.727 577.986 865.793 574.884 865.793 571.381C865.793 568.114 864.822 565.367 862.881 563.142C860.987 560.917 858.193 559.023 854.5 557.46C850.854 555.898 846.38 554.477 841.077 553.199L825.239 549.222C812.976 546.239 803.293 541.575 796.191 535.23C789.088 528.885 785.561 520.339 785.608 509.591C785.561 500.784 787.905 493.09 792.639 486.509C797.422 479.927 803.979 474.79 812.313 471.097C820.646 467.403 830.116 465.557 840.722 465.557C851.517 465.557 860.94 467.403 868.989 471.097C877.085 474.79 883.383 479.927 887.881 486.509C892.379 493.09 894.699 500.713 894.841 509.378H865.367ZM939.266 613H906.311L956.524 467.545H996.155L1046.3 613H1013.34L976.908 500.784H975.771L939.266 613ZM937.206 555.827H1015.05V579.832H937.206V555.827ZM1066.04 613.923C1063.7 613.923 1061.69 613.095 1060 611.438C1058.35 609.757 1057.52 607.744 1057.52 605.401C1057.52 603.08 1058.35 601.092 1060 599.435C1061.69 597.777 1063.7 596.949 1066.04 596.949C1068.31 596.949 1070.3 597.777 1072.01 599.435C1073.71 601.092 1074.56 603.08 1074.56 605.401C1074.56 606.963 1074.16 608.395 1073.36 609.697C1072.58 610.976 1071.55 612.006 1070.27 612.787C1068.99 613.545 1067.58 613.923 1066.04 613.923ZM1102.11 540.273V613H1086.98V540.273H1102.11ZM1129.78 614.03C1126.3 614.03 1123.2 613.426 1120.48 612.219C1117.76 610.988 1115.6 609.177 1114.02 606.786C1112.45 604.371 1111.67 601.364 1111.67 597.766C1111.67 594.735 1112.23 592.19 1113.34 590.131C1114.46 588.071 1115.97 586.414 1117.89 585.159C1119.81 583.904 1121.98 582.957 1124.42 582.318C1126.88 581.679 1129.46 581.229 1132.16 580.969C1135.34 580.637 1137.89 580.33 1139.83 580.045C1141.78 579.738 1143.18 579.288 1144.06 578.696C1144.94 578.104 1145.37 577.228 1145.37 576.068V575.855C1145.37 573.606 1144.66 571.866 1143.24 570.635C1141.85 569.404 1139.86 568.788 1137.28 568.788C1134.55 568.788 1132.39 569.392 1130.78 570.599C1129.17 571.783 1128.1 573.275 1127.58 575.074L1113.59 573.938C1114.3 570.623 1115.7 567.759 1117.78 565.344C1119.86 562.905 1122.55 561.035 1125.84 559.733C1129.16 558.407 1132.99 557.744 1137.35 557.744C1140.38 557.744 1143.28 558.099 1146.05 558.81C1148.84 559.52 1151.32 560.621 1153.47 562.112C1155.65 563.604 1157.36 565.521 1158.62 567.865C1159.87 570.185 1160.5 572.967 1160.5 576.21V613H1146.16V605.436H1145.73C1144.85 607.141 1143.68 608.644 1142.21 609.946C1140.75 611.224 1138.98 612.231 1136.92 612.964C1134.86 613.675 1132.48 614.03 1129.78 614.03ZM1134.12 603.589C1136.34 603.589 1138.31 603.152 1140.01 602.276C1141.72 601.376 1143.05 600.169 1144.02 598.653C1144.99 597.138 1145.48 595.422 1145.48 593.504V587.716C1145.01 588.024 1144.36 588.308 1143.53 588.568C1142.72 588.805 1141.81 589.03 1140.79 589.243C1139.77 589.432 1138.76 589.61 1137.74 589.776C1136.72 589.918 1135.8 590.048 1134.97 590.166C1133.19 590.427 1131.64 590.841 1130.32 591.409C1128.99 591.977 1127.96 592.747 1127.23 593.717C1126.49 594.664 1126.13 595.848 1126.13 597.268C1126.13 599.328 1126.87 600.902 1128.36 601.991C1129.88 603.057 1131.8 603.589 1134.12 603.589ZM1187.37 581.466V613H1172.24V558.455H1186.66V568.078H1187.29C1188.5 564.906 1190.53 562.396 1193.37 560.55C1196.21 558.679 1199.65 557.744 1203.7 557.744C1207.49 557.744 1210.79 558.573 1213.61 560.23C1216.43 561.887 1218.62 564.255 1220.18 567.332C1221.74 570.386 1222.52 574.032 1222.52 578.27V613H1207.39V580.969C1207.42 577.631 1206.57 575.027 1204.84 573.156C1203.11 571.262 1200.73 570.315 1197.7 570.315C1195.66 570.315 1193.86 570.753 1192.3 571.629C1190.76 572.505 1189.56 573.784 1188.68 575.464C1187.83 577.122 1187.39 579.122 1187.37 581.466ZM1259.02 634.591C1254.12 634.591 1249.92 633.916 1246.41 632.567C1242.93 631.241 1240.16 629.43 1238.1 627.134C1236.04 624.837 1234.71 622.257 1234.09 619.392L1248.08 617.51C1248.51 618.599 1249.18 619.617 1250.11 620.564C1251.03 621.511 1252.25 622.268 1253.76 622.837C1255.3 623.429 1257.17 623.724 1259.37 623.724C1262.66 623.724 1265.38 622.92 1267.51 621.31C1269.66 619.723 1270.74 617.06 1270.74 613.32V603.341H1270.1C1269.44 604.856 1268.44 606.288 1267.12 607.638C1265.79 608.987 1264.09 610.088 1262 610.94C1259.92 611.793 1257.43 612.219 1254.54 612.219C1250.45 612.219 1246.72 611.272 1243.36 609.378C1240.02 607.46 1237.36 604.536 1235.37 600.607C1233.4 596.653 1232.42 591.658 1232.42 585.621C1232.42 579.442 1233.43 574.281 1235.44 570.138C1237.45 565.995 1240.13 562.893 1243.47 560.834C1246.83 558.774 1250.51 557.744 1254.51 557.744C1257.56 557.744 1260.12 558.265 1262.18 559.307C1264.24 560.325 1265.9 561.603 1267.15 563.142C1268.43 564.657 1269.41 566.149 1270.1 567.616H1270.67V558.455H1285.69V613.533C1285.69 618.173 1284.55 622.055 1282.28 625.18C1280.01 628.305 1276.86 630.649 1272.83 632.212C1268.83 633.798 1264.23 634.591 1259.02 634.591ZM1259.34 600.855C1261.78 600.855 1263.84 600.251 1265.52 599.044C1267.22 597.813 1268.52 596.061 1269.42 593.788C1270.35 591.492 1270.81 588.746 1270.81 585.55C1270.81 582.354 1270.36 579.584 1269.46 577.24C1268.56 574.873 1267.26 573.038 1265.55 571.736C1263.85 570.434 1261.78 569.783 1259.34 569.783C1256.85 569.783 1254.76 570.457 1253.05 571.807C1251.35 573.133 1250.06 574.979 1249.18 577.347C1248.31 579.714 1247.87 582.448 1247.87 585.55C1247.87 588.698 1248.31 591.421 1249.18 593.717C1250.08 595.99 1251.37 597.754 1253.05 599.009C1254.76 600.24 1256.85 600.855 1259.34 600.855ZM1413.62 554.051V568.327C1405.47 568.327 1399.79 569.96 1396.57 573.227C1393.4 576.494 1391.81 581.774 1391.81 589.065V604.832C1391.81 613.592 1390.58 620.599 1388.12 625.855C1385.71 631.158 1382.3 635.159 1377.89 637.858C1373.54 640.557 1368.35 642.356 1362.34 643.256C1356.37 644.155 1349.79 644.605 1342.59 644.605V621.949C1348.18 621.949 1352.42 621.215 1355.31 619.747C1358.24 618.327 1360.23 616.101 1361.27 613.071C1362.32 610.088 1362.84 606.324 1362.84 601.778V581.04C1362.84 577.394 1363.5 573.961 1364.83 570.741C1366.15 567.474 1368.61 564.61 1372.21 562.148C1375.81 559.638 1380.95 557.673 1387.62 556.253C1394.3 554.785 1402.96 554.051 1413.62 554.051ZM1342.59 464.847C1349.79 464.847 1356.37 465.296 1362.34 466.196C1368.35 467.096 1373.54 468.895 1377.89 471.594C1382.3 474.293 1385.71 478.294 1388.12 483.597C1390.58 488.852 1391.81 495.86 1391.81 504.619V520.315C1391.81 527.607 1393.4 532.886 1396.57 536.153C1399.79 539.42 1405.47 541.054 1413.62 541.054V555.33C1402.96 555.33 1394.3 554.619 1387.62 553.199C1380.95 551.731 1375.81 549.766 1372.21 547.304C1368.61 544.795 1366.15 541.93 1364.83 538.71C1363.5 535.443 1362.84 532.01 1362.84 528.412V507.673C1362.84 503.08 1362.32 499.293 1361.27 496.31C1360.23 493.279 1358.24 491.054 1355.31 489.634C1352.42 488.166 1348.18 487.432 1342.59 487.432V464.847ZM1413.62 541.054V568.327H1388.12V541.054H1413.62Z" fill="black"/>
</svg>
